<?xml version="1.0" encoding="UTF-8" standalone="no"?>
<!-- Created with Inkscape (http://www.inkscape.org/) -->

<svg
   xmlns:dc="http://purl.org/dc/elements/1.1/"
   xmlns:cc="http://creativecommons.org/ns#"
   xmlns:rdf="http://www.w3.org/1999/02/22-rdf-syntax-ns#"
   xmlns:svg="http://www.w3.org/2000/svg"
   xmlns="http://www.w3.org/2000/svg"
   xmlns:sodipodi="http://sodipodi.sourceforge.net/DTD/sodipodi-0.dtd"
   xmlns:inkscape="http://www.inkscape.org/namespaces/inkscape"
   width="297mm"
   height="210mm"
   viewBox="0 0 1052.3622 744.09448"
   id="svg2"
   version="1.1"
   inkscape:version="0.91 r13725"
   sodipodi:docname="floorplan.svg">
  <defs
     id="defs4" />
  <sodipodi:namedview
     id="base"
     pagecolor="#ffffff"
     bordercolor="#666666"
     borderopacity="1.0"
     inkscape:pageopacity="0.0"
     inkscape:pageshadow="2"
     inkscape:zoom="0.64"
     inkscape:cx="548.91341"
     inkscape:cy="399.88025"
     inkscape:document-units="px"
     inkscape:current-layer="layer1"
     showgrid="false"
     inkscape:window-width="1057"
     inkscape:window-height="792"
     inkscape:window-x="470"
     inkscape:window-y="0"
     inkscape:window-maximized="0" />
  <metadata
     id="metadata7">
    <rdf:RDF>
      <cc:Work
         rdf:about="">
        <dc:format>image/svg+xml</dc:format>
        <dc:type
           rdf:resource="http://purl.org/dc/dcmitype/StillImage" />
        <dc:title></dc:title>
      </cc:Work>
    </rdf:RDF>
  </metadata>
  <g
     inkscape:label="Layer 1"
     inkscape:groupmode="layer"
     id="layer1"
     transform="translate(0,-308.26772)">
    <rect
       style="fill:#e0f0f8;fill-opacity:1;stroke:#c6c6c6;stroke-width:2.5;stroke-linecap:butt;stroke-miterlimit:4;stroke-dasharray:none;stroke-dashoffset:0;stroke-opacity:1"
       id="rect4823-5"
       width="218.40625"
       height="138.1875"
       x="682.59375"
       y="885.61218" />
    <rect
       style="fill:#e0f0f8;fill-opacity:1;stroke:#c6c6c6;stroke-width:2.5;stroke-linecap:butt;stroke-miterlimit:4;stroke-dasharray:none;stroke-dashoffset:0;stroke-opacity:1"
       id="rect4823"
       width="927"
       height="521"
       x="56.999996"
       y="373.86221" />
    <path
       style="fill:#f0f0f0;fill-opacity:1;stroke:#c6c6c6;stroke-width:2.5;stroke-linecap:butt;stroke-miterlimit:4;stroke-dasharray:none;stroke-dashoffset:0;stroke-opacity:1"
       d="M 981.25391 60.527344 L 981.25391 60.552734 L 50.595703 60.552734 L 50.595703 69.302734 L 50.595703 590.48828 L 59.345703 590.48828 L 59.345703 590.46289 L 141.5 590.46289 L 141.5 581.71289 L 59.345703 581.71289 L 59.345703 286.40625 L 125 286.40625 L 125 277.65625 L 59.345703 277.65625 L 59.345703 176.85352 L 133.96484 176.85352 L 133.96484 168.10352 L 59.345703 168.10352 L 59.345703 69.302734 L 183.31641 69.302734 L 183.31641 182.09375 L 192.06641 182.09375 L 192.06641 69.302734 L 303.0625 69.302734 L 303.0625 191.51953 L 285.60742 191.51953 L 276.85742 191.51953 L 276.85742 277.65625 L 192.06641 277.65625 L 192.06641 230.09375 L 183.31641 230.09375 L 183.31641 277.65625 L 173 277.65625 L 173 286.40625 L 281.7207 286.40625 L 287.49219 292.17578 L 294.15625 285.51172 L 288.36523 279.71875 L 288.36523 279.30078 L 307.81445 259.85156 L 301.63867 253.67578 L 285.60742 269.70703 L 285.60742 200.26953 L 355.04492 200.26953 L 335.58008 219.73438 L 341.75586 225.91016 L 367.39648 200.26953 L 391 200.26953 L 391 191.51953 L 311.8125 191.51953 L 311.8125 69.302734 L 499.78516 69.302734 L 499.78516 191.51953 L 439 191.51953 L 439 200.26953 L 510.75 200.26953 L 510.75 191.51953 L 508.53516 191.51953 L 508.53516 126.82227 L 584.77539 126.82227 L 584.77539 191.51953 L 582.75 191.51953 L 582.75 200.26953 L 588.58398 200.26953 L 593.52539 200.26953 L 593.52539 111.09375 L 584.77539 111.09375 L 584.77539 118.07227 L 508.53516 118.07227 L 508.53516 69.302734 L 584.77539 69.302734 L 584.77539 75.09375 L 593.52539 75.09375 L 593.52539 69.302734 L 981.25391 69.302734 L 981.25391 279.69336 L 772.64062 279.69336 L 772.64062 288.44336 L 981.25391 288.44336 L 981.25391 473.99609 L 893.67969 561.56836 L 895.32227 563.21094 L 895.32227 581.71289 L 890 581.71289 L 890 590.46289 L 895.83984 590.46289 L 895.83984 711.125 L 687.375 711.125 L 687.375 590.46289 L 746 590.46289 L 746 581.71289 L 675 581.71289 L 675 590.46289 L 678.625 590.46289 L 678.625 719.875 L 682.5 719.875 L 687.375 719.875 L 898.25 719.875 L 904.58984 719.875 L 904.58984 590.46289 L 981.25391 590.46289 L 990.00391 590.46289 L 990.00586 590.46289 L 990.00586 581.71289 L 990.00391 581.71289 L 990.00391 60.527344 L 981.25391 60.527344 z M 424.49805 265.81445 L 424.49805 326.96289 L 424.49805 334.19727 L 414 334.19727 L 414 342.94727 L 433.24805 342.94727 L 433.24805 335.71289 L 450 335.71289 L 450 326.96289 L 433.24805 326.96289 L 433.24805 274.56445 L 531.00977 274.56445 L 531.00977 326.96289 L 522 326.96289 L 522 335.71289 L 534.58008 335.71289 L 584.69922 385.83008 L 584.69922 581.71289 L 480 581.71289 L 480 590.46289 L 603 590.46289 L 603 581.71289 L 593.44922 581.71289 L 593.44922 332.59375 L 584.69922 332.59375 L 584.69922 373.45508 L 539.75977 328.51758 L 539.75977 274.56445 L 584.69922 274.56445 L 584.69922 284.59375 L 593.44922 284.59375 L 593.44922 265.81445 L 433.24805 265.81445 L 424.49805 265.81445 z M 336.58203 327.9375 L 329.91797 334.60156 L 336.58398 341.26758 L 336.58398 581.71289 L 257.5 581.71289 L 257.5 590.46289 L 389 590.46289 L 389 581.71289 L 345.33398 581.71289 L 345.33398 342.94727 L 354 342.94727 L 354 334.19727 L 342.8418 334.19727 L 336.58203 327.9375 z M 981.25391 486.36914 L 981.25391 581.71289 L 904.07227 581.71289 L 904.07227 563.55078 L 981.25391 486.36914 z "
       id="rect4136"
       transform="translate(0,308.26772)" />
    <path
       id="camera.living_room"
       d="m 950.04139,631.75598 4.53727,4.53727 a 1.8333333,1.8333333 0 0 0 2.59273,0 l 15.55634,-15.55635 a 1.8333333,1.8333333 0 0 0 0,-2.59272 l -12.96362,-12.96362 a 1.8333333,1.8333333 0 0 0 -2.59272,0 l -15.55635,15.55634 a 1.8333333,1.8333333 0 0 0 0,2.59273 l 4.53727,4.53727 -10.3709,0 14.26,14.25998 -2e-5,-10.3709 z"
       inkscape:connector-curvature="0"
       style="fill:#44739e;fill-opacity:1"
       inkscape:label="#path4827" />
    <path
       id="light.living_room_light_level"
       d="m 790.52328,724.19672 a 10.519859,10.519859 0 0 1 10.51986,10.51986 c 0,3.89235 -2.12151,7.29377 -5.25993,9.11721 l 0,3.15596 a 1.7533098,1.7533098 0 0 1 -1.75331,1.75331 l -7.01324,0 a 1.7533098,1.7533098 0 0 1 -1.75331,-1.75331 l 0,-3.15596 c -3.13843,-1.82344 -5.25993,-5.22486 -5.25993,-9.11721 a 10.519859,10.519859 0 0 1 10.51986,-10.51986 m 3.50662,26.29965 0,1.75331 a 1.7533098,1.7533098 0 0 1 -1.75331,1.75331 l -3.50662,0 a 1.7533098,1.7533098 0 0 1 -1.75331,-1.75331 l 0,-1.75331 7.01324,0 m 10.51986,-17.5331 5.25993,0 0,3.50662 -5.25993,0 0,-3.50662 m -33.31289,0 5.25993,0 0,3.50662 -5.25993,0 0,-3.50662 m 21.03972,-17.5331 0,5.25993 -3.50662,0 0,-5.25993 3.50662,0 m -14.16675,4.38328 3.73455,3.75208 -2.4897,2.47217 -3.73455,-3.71702 2.4897,-2.50723 m 21.09232,3.73455 3.71702,-3.73455 2.50723,2.50723 -3.73455,3.71702 -2.4897,-2.4897 z"
       inkscape:connector-curvature="0"
       style="fill:#44739e;fill-opacity:1"
       inkscape:label="#path4239" />
    <path
       id="switch.patio_string_lights_switch"
       d="m 788.45679,991.97881 5.69308,0 0,-9.48843 3.79539,0 0,9.48843 5.69308,0 7.59078,15.18159 -30.36311,0 7.59078,-15.18159 m 11.38616,17.07929 a 3.7953883,3.7953883 0 0 1 -3.79539,3.7954 3.7953883,3.7953883 0 0 1 -3.79539,-3.7954 l 7.59078,0 z"
       inkscape:connector-curvature="0"
       style="fill:#44739e;fill-opacity:1"
       inkscape:label="#path4250" />
    <path
       id="light.patio_light_level"
       d="m 713.73591,913.25983 a 10.519859,10.519859 0 0 1 10.51986,10.51986 c 0,3.89235 -2.12151,7.29377 -5.25993,9.11721 l 0,3.15596 a 1.7533098,1.7533098 0 0 1 -1.75331,1.75331 l -7.01324,0 a 1.7533098,1.7533098 0 0 1 -1.75331,-1.75331 l 0,-3.15596 c -3.13843,-1.82344 -5.25993,-5.22486 -5.25993,-9.11721 a 10.519859,10.519859 0 0 1 10.51986,-10.51986 m 3.50662,26.29965 0,1.75331 a 1.7533098,1.7533098 0 0 1 -1.75331,1.75331 l -3.50662,0 a 1.7533098,1.7533098 0 0 1 -1.75331,-1.75331 l 0,-1.75331 7.01324,0 m 10.51986,-17.5331 5.25993,0 0,3.50662 -5.25993,0 0,-3.50662 m -33.31289,0 5.25993,0 0,3.50662 -5.25993,0 0,-3.50662 m 21.03972,-17.5331 0,5.25993 -3.50662,0 0,-5.25993 3.50662,0 m -14.16675,4.38328 3.73455,3.75208 -2.4897,2.47217 -3.73455,-3.71702 2.4897,-2.50723 m 21.09232,3.73455 3.71702,-3.73455 2.50723,2.50723 -3.73455,3.71702 -2.4897,-2.4897 z"
       inkscape:connector-curvature="0"
       style="fill:#44739e;fill-opacity:1"
       inkscape:label="#path4239-7" />
    <path
       id="light.master_bedroom_left_lamp_level"
       d="m 76.609316,664.50202 14.18719,0 7.093594,21.28078 -28.374374,0 7.09359,-21.28078 m 5.3202,23.05417 3.54679,0 0,8.86699 8.866994,0 0,3.5468 -21.280774,0 0,-3.5468 8.86699,0 0,-8.86699 z"
       inkscape:connector-curvature="0"
       style="fill:#44739e;fill-opacity:1"
       inkscape:label="#path4228-0" />
    <path
       id="light.master_bedroom_right_lamp_level"
       d="m 76.609319,824.7059 14.187191,0 7.09359,21.28078 -28.374371,0 7.09359,-21.28078 m 5.3202,23.05417 3.54679,0 0,8.86699 8.866991,0 0,3.5468 -21.280771,0 0,-3.5468 8.86699,0 0,-8.86699 z"
       inkscape:connector-curvature="0"
       style="fill:#44739e;fill-opacity:1"
       inkscape:label="#path4228-6" />
    <path
       id="light.living_room_table_lamp_level"
       d="m 744.20736,610.36416 14.18719,0 7.09359,21.28078 -28.37437,0 7.09359,-21.28078 m 5.3202,23.05417 3.54679,0 0,8.86699 8.86699,0 0,3.5468 -21.28077,0 0,-3.5468 8.86699,0 0,-8.86699 z"
       inkscape:connector-curvature="0"
       style="fill:#44739e;fill-opacity:1"
       inkscape:label="#path4228-2" />
    <path
       id="light.living_room_floor_lamp_level"
       d="m 902.20153,610.36416 14.18719,0 7.09359,21.28078 -28.37437,0 7.09359,-21.28078 m 5.3202,23.05417 3.54679,0 0,8.86699 8.86699,0 0,3.5468 -21.28077,0 0,-3.5468 8.86699,0 0,-8.86699 z"
       inkscape:connector-curvature="0"
       style="fill:#44739e;fill-opacity:1"
       inkscape:label="#path4228-1" />
    <path
       id="light.guest_bedroom_light_level"
       d="m 460.72426,750.1608 a 10.519859,10.519859 0 0 1 10.51986,10.51986 c 0,3.89235 -2.12151,7.29377 -5.25993,9.11721 l 0,3.15596 a 1.7533098,1.7533098 0 0 1 -1.75331,1.75331 l -7.01324,0 a 1.7533098,1.7533098 0 0 1 -1.75331,-1.75331 l 0,-3.15596 c -3.13843,-1.82344 -5.25993,-5.22486 -5.25993,-9.11721 a 10.519859,10.519859 0 0 1 10.51986,-10.51986 m 3.50662,26.29965 0,1.75331 a 1.7533098,1.7533098 0 0 1 -1.75331,1.75331 l -3.50662,0 a 1.7533098,1.7533098 0 0 1 -1.75331,-1.75331 l 0,-1.75331 7.01324,0 m 10.51986,-17.5331 5.25993,0 0,3.50662 -5.25993,0 0,-3.50662 m -33.31289,0 5.25993,0 0,3.50662 -5.25993,0 0,-3.50662 m 21.03972,-17.5331 0,5.25993 -3.50662,0 0,-5.25993 3.50662,0 m -14.16675,4.38328 3.73455,3.75208 -2.4897,2.47217 -3.73455,-3.71702 2.4897,-2.50723 m 21.09232,3.73455 3.71702,-3.73455 2.50723,2.50723 -3.73455,3.71702 -2.4897,-2.4897 z"
       inkscape:connector-curvature="0"
       style="fill:#44739e;fill-opacity:1"
       inkscape:label="#path4239-78" />
    <path
       id="light.main_bathroom_vanity_level"
       d="m 473.98251,425.75304 a 10.519859,10.519859 0 0 1 10.51986,10.51986 c 0,3.89235 -2.12151,7.29377 -5.25993,9.11721 l 0,3.15596 a 1.7533098,1.7533098 0 0 1 -1.75331,1.75331 l -7.01324,0 a 1.7533098,1.7533098 0 0 1 -1.75331,-1.75331 l 0,-3.15596 c -3.13843,-1.82344 -5.25993,-5.22486 -5.25993,-9.11721 a 10.519859,10.519859 0 0 1 10.51986,-10.51986 m 3.50662,26.29965 0,1.75331 a 1.7533098,1.7533098 0 0 1 -1.75331,1.75331 l -3.50662,0 a 1.7533098,1.7533098 0 0 1 -1.75331,-1.75331 l 0,-1.75331 7.01324,0 m 10.51986,-17.5331 5.25993,0 0,3.50662 -5.25993,0 0,-3.50662 m -33.31289,0 5.25993,0 0,3.50662 -5.25993,0 0,-3.50662 m 21.03972,-17.5331 0,5.25993 -3.50662,0 0,-5.25993 3.50662,0 m -14.16675,4.38328 3.73455,3.75208 -2.4897,2.47217 -3.73455,-3.71702 2.4897,-2.50723 m 21.09232,3.73455 3.71702,-3.73455 2.50723,2.50723 -3.73455,3.71702 -2.4897,-2.4897 z"
       inkscape:connector-curvature="0"
       style="fill:#44739e;fill-opacity:1"
       inkscape:label="#path4239-6" />
    <path
       id="light.main_bathroom_tub_level"
       d="m 349.13397,425.75304 a 10.519859,10.519859 0 0 1 10.51986,10.51986 c 0,3.89235 -2.12151,7.29377 -5.25993,9.11721 l 0,3.15596 a 1.7533098,1.7533098 0 0 1 -1.75331,1.75331 l -7.01324,0 a 1.7533098,1.7533098 0 0 1 -1.75331,-1.75331 l 0,-3.15596 c -3.13843,-1.82344 -5.25993,-5.22486 -5.25993,-9.11721 a 10.519859,10.519859 0 0 1 10.51986,-10.51986 m 3.50662,26.29965 0,1.75331 a 1.7533098,1.7533098 0 0 1 -1.75331,1.75331 l -3.50662,0 a 1.7533098,1.7533098 0 0 1 -1.75331,-1.75331 l 0,-1.75331 7.01324,0 m 10.51986,-17.5331 5.25993,0 0,3.50662 -5.25993,0 0,-3.50662 m -33.31289,0 5.25993,0 0,3.50662 -5.25993,0 0,-3.50662 m 21.03972,-17.5331 0,5.25993 -3.50662,0 0,-5.25993 3.50662,0 m -14.16675,4.38328 3.73455,3.75208 -2.4897,2.47217 -3.73455,-3.71702 2.4897,-2.50723 m 21.09232,3.73455 3.71702,-3.73455 2.50723,2.50723 -3.73455,3.71702 -2.4897,-2.4897 z"
       inkscape:connector-curvature="0"
       style="fill:#44739e;fill-opacity:1"
       inkscape:label="#path4239-8" />
    <path
       id="light.master_bathroom_vanity_level"
       d="m 87.283494,525.87537 a 10.519859,10.519859 0 0 1 10.51986,10.51986 c 0,3.89235 -2.12151,7.29377 -5.25993,9.11721 l 0,3.15596 a 1.7533098,1.7533098 0 0 1 -1.75331,1.75331 l -7.01324,0 a 1.7533098,1.7533098 0 0 1 -1.75331,-1.75331 l 0,-3.15596 c -3.13843,-1.82344 -5.25993,-5.22486 -5.25993,-9.11721 a 10.519859,10.519859 0 0 1 10.51986,-10.51986 m 3.50662,26.29965 0,1.75331 a 1.7533098,1.7533098 0 0 1 -1.75331,1.75331 l -3.50662,0 a 1.7533098,1.7533098 0 0 1 -1.75331,-1.75331 l 0,-1.75331 7.01324,0 m 10.519856,-17.5331 5.25993,0 0,3.50662 -5.25993,0 0,-3.50662 m -33.312886,0 5.25993,0 0,3.50662 -5.25993,0 0,-3.50662 m 21.03972,-17.5331 0,5.25993 -3.50662,0 0,-5.25993 3.50662,0 m -14.16675,4.38328 3.73455,3.75208 -2.4897,2.47217 -3.73455,-3.71702 2.4897,-2.50723 m 21.09232,3.73455 3.71702,-3.73455 2.507226,2.50723 -3.734546,3.71702 -2.4897,-2.4897 z"
       inkscape:connector-curvature="0"
       style="fill:#44739e;fill-opacity:1"
       inkscape:label="#path4239-66" />
    <path
       id="light.master_bathroom_shower_level"
       d="m 122.63883,417.18022 a 10.519859,10.519859 0 0 1 10.51986,10.51986 c 0,3.89235 -2.12151,7.29377 -5.25993,9.11721 l 0,3.15596 a 1.7533098,1.7533098 0 0 1 -1.75331,1.75331 l -7.01324,0 a 1.7533098,1.7533098 0 0 1 -1.75331,-1.75331 l 0,-3.15596 c -3.13843,-1.82344 -5.25993,-5.22486 -5.25993,-9.11721 a 10.519859,10.519859 0 0 1 10.51986,-10.51986 m 3.50662,26.29965 0,1.75331 a 1.7533098,1.7533098 0 0 1 -1.75331,1.75331 l -3.50662,0 a 1.7533098,1.7533098 0 0 1 -1.75331,-1.75331 l 0,-1.75331 7.01324,0 m 10.51986,-17.5331 5.25993,0 0,3.50662 -5.25993,0 0,-3.50662 m -33.31289,0 5.25993,0 0,3.50662 -5.25993,0 0,-3.50662 m 21.03972,-17.5331 0,5.25993 -3.50662,0 0,-5.25993 3.50662,0 m -14.16675,4.38328 3.73455,3.75208 -2.4897,2.47217 -3.73455,-3.71702 2.4897,-2.50723 m 21.09232,3.73455 3.71702,-3.73455 2.50723,2.50723 -3.73455,3.71702 -2.4897,-2.4897 z"
       inkscape:connector-curvature="0"
       style="fill:#44739e;fill-opacity:1"
       inkscape:label="#path4239-4" />
    <path
       id="light.master_bedroom_light_level"
       d="m 207.71262,732.48313 a 10.519859,10.519859 0 0 1 10.51986,10.51986 c 0,3.89235 -2.12151,7.29377 -5.25993,9.11721 l 0,3.15596 a 1.7533098,1.7533098 0 0 1 -1.75331,1.75331 l -7.01324,0 a 1.7533098,1.7533098 0 0 1 -1.75331,-1.75331 l 0,-3.15596 c -3.13843,-1.82344 -5.25993,-5.22486 -5.25993,-9.11721 a 10.519859,10.519859 0 0 1 10.51986,-10.51986 m 3.50662,26.29965 0,1.75331 a 1.7533098,1.7533098 0 0 1 -1.75331,1.75331 l -3.50662,0 a 1.7533098,1.7533098 0 0 1 -1.75331,-1.75331 l 0,-1.75331 7.01324,0 m 10.51986,-17.5331 5.25993,0 0,3.50662 -5.25993,0 0,-3.50662 m -33.31289,0 5.25993,0 0,3.50662 -5.25993,0 0,-3.50662 m 21.03972,-17.5331 0,5.25993 -3.50662,0 0,-5.25993 3.50662,0 m -14.16675,4.38328 3.73455,3.75208 -2.4897,2.47217 -3.73455,-3.71702 2.4897,-2.50723 m 21.09232,3.73455 3.71702,-3.73455 2.50723,2.50723 -3.73455,3.71702 -2.4897,-2.4897 z"
       inkscape:connector-curvature="0"
       style="fill:#44739e;fill-opacity:1"
       inkscape:label="#path4239-78-5" />
    <path
       id="light.hallway_light_level"
       d="m 444.15145,534.7142 a 10.519859,10.519859 0 0 1 10.51986,10.51986 c 0,3.89235 -2.12151,7.29377 -5.25993,9.11721 l 0,3.15596 a 1.7533098,1.7533098 0 0 1 -1.75331,1.75331 l -7.01324,0 a 1.7533098,1.7533098 0 0 1 -1.75331,-1.75331 l 0,-3.15596 c -3.13843,-1.82344 -5.25993,-5.22486 -5.25993,-9.11721 a 10.519859,10.519859 0 0 1 10.51986,-10.51986 m 3.50662,26.29965 0,1.75331 a 1.7533098,1.7533098 0 0 1 -1.75331,1.75331 l -3.50662,0 a 1.7533098,1.7533098 0 0 1 -1.75331,-1.75331 l 0,-1.75331 7.01324,0 m 10.51986,-17.5331 5.25993,0 0,3.50662 -5.25993,0 0,-3.50662 m -33.31289,0 5.25993,0 0,3.50662 -5.25993,0 0,-3.50662 m 21.03972,-17.5331 0,5.25993 -3.50662,0 0,-5.25993 3.50662,0 m -14.16675,4.38328 3.73455,3.75208 -2.4897,2.47217 -3.73455,-3.71702 2.4897,-2.50723 m 21.09232,3.73455 3.71702,-3.73455 2.50723,2.50723 -3.73455,3.71702 -2.4897,-2.4897 z"
       inkscape:connector-curvature="0"
       style="fill:#44739e;fill-opacity:1"
       inkscape:label="#path4239-6-1" />
    <path
       id="light.dining_light_level"
       d="m 688.32426,444.11615 a 10.519859,10.519859 0 0 1 10.51986,10.51986 c 0,3.89235 -2.12151,7.29377 -5.25993,9.11721 l 0,3.15596 a 1.7533098,1.7533098 0 0 1 -1.75331,1.75331 l -7.01324,0 a 1.7533098,1.7533098 0 0 1 -1.75331,-1.75331 l 0,-3.15596 c -3.13843,-1.82344 -5.25993,-5.22486 -5.25993,-9.11721 a 10.519859,10.519859 0 0 1 10.51986,-10.51986 m 3.50662,26.29965 0,1.75331 a 1.7533098,1.7533098 0 0 1 -1.75331,1.75331 l -3.50662,0 a 1.7533098,1.7533098 0 0 1 -1.75331,-1.75331 l 0,-1.75331 7.01324,0 m 10.51986,-17.5331 5.25993,0 0,3.50662 -5.25993,0 0,-3.50662 m -33.31289,0 5.25993,0 0,3.50662 -5.25993,0 0,-3.50662 m 21.03972,-17.5331 0,5.25993 -3.50662,0 0,-5.25993 3.50662,0 m -14.16675,4.38328 3.73455,3.75208 -2.4897,2.47217 -3.73455,-3.71702 2.4897,-2.50723 m 21.09232,3.73455 3.71702,-3.73455 2.50723,2.50723 -3.73455,3.71702 -2.4897,-2.4897 z"
       inkscape:connector-curvature="0"
       style="fill:#44739e;fill-opacity:1"
       inkscape:label="#path4239-6-1-7" />
    <path
       id="light.kitchen_light_level"
       d="m 843.36698,470.63265 a 10.519859,10.519859 0 0 1 10.51986,10.51986 c 0,3.89235 -2.12151,7.29377 -5.25993,9.11721 l 0,3.15596 a 1.7533098,1.7533098 0 0 1 -1.75331,1.75331 l -7.01324,0 a 1.7533098,1.7533098 0 0 1 -1.75331,-1.75331 l 0,-3.15596 c -3.13843,-1.82344 -5.25993,-5.22486 -5.25993,-9.11721 a 10.519859,10.519859 0 0 1 10.51986,-10.51986 m 3.50662,26.29965 0,1.75331 a 1.7533098,1.7533098 0 0 1 -1.75331,1.75331 l -3.50662,0 a 1.7533098,1.7533098 0 0 1 -1.75331,-1.75331 l 0,-1.75331 7.01324,0 m 10.51986,-17.5331 5.25993,0 0,3.50662 -5.25993,0 0,-3.50662 m -33.31289,0 5.25993,0 0,3.50662 -5.25993,0 0,-3.50662 m 21.03972,-17.5331 0,5.25993 -3.50662,0 0,-5.25993 3.50662,0 m -14.16675,4.38328 3.73455,3.75208 -2.4897,2.47217 -3.73455,-3.71702 2.4897,-2.50723 m 21.09232,3.73455 3.71702,-3.73455 2.50723,2.50723 -3.73455,3.71702 -2.4897,-2.4897 z"
       inkscape:connector-curvature="0"
       style="fill:#44739e;fill-opacity:1"
       inkscape:label="#path4239-6-1-2" />
    <path
       id="light.master_bedroom_closet_level"
       d="m 244.17281,471.7375 a 10.519859,10.519859 0 0 1 10.51986,10.51986 c 0,3.89235 -2.12151,7.29377 -5.25993,9.11721 l 0,3.15596 a 1.7533098,1.7533098 0 0 1 -1.75331,1.75331 l -7.01324,0 a 1.7533098,1.7533098 0 0 1 -1.75331,-1.75331 l 0,-3.15596 c -3.13843,-1.82344 -5.25993,-5.22486 -5.25993,-9.11721 a 10.519859,10.519859 0 0 1 10.51986,-10.51986 m 3.50662,26.29965 0,1.75331 a 1.7533098,1.7533098 0 0 1 -1.75331,1.75331 l -3.50662,0 a 1.7533098,1.7533098 0 0 1 -1.75331,-1.75331 l 0,-1.75331 7.01324,0 m 10.51986,-17.5331 5.25993,0 0,3.50662 -5.25993,0 0,-3.50662 m -33.31289,0 5.25993,0 0,3.50662 -5.25993,0 0,-3.50662 m 21.03972,-17.5331 0,5.25993 -3.50662,0 0,-5.25993 3.50662,0 m -14.16675,4.38328 3.73455,3.75208 -2.4897,2.47217 -3.73455,-3.71702 2.4897,-2.50723 m 21.09232,3.73455 3.71702,-3.73455 2.50723,2.50723 -3.73455,3.71702 -2.4897,-2.4897 z"
       inkscape:connector-curvature="0"
       style="fill:#44739e;fill-opacity:1"
       inkscape:label="#path4239-6-1-6" />
    <path
       id="lock.front_door_lock_locked"
       d="m 241.05485,982.62277 a 5.8901998,5.8901998 0 0 0 5.89021,-5.89022 c 0,-3.26904 -2.65061,-5.89018 -5.89021,-5.89018 a 5.8901998,5.8901998 0 0 0 -5.89022,5.89018 5.8901998,5.8901998 0 0 0 5.89022,5.89022 m 17.67061,-26.50593 a 5.8901998,5.8901998 0 0 1 5.89018,5.89022 l 0,29.45101 a 5.8901998,5.8901998 0 0 1 -5.89018,5.89017 l -35.34123,0 a 5.8901998,5.8901998 0 0 1 -5.89018,-5.89017 l 0,-29.45101 c 0,-3.26907 2.65058,-5.89022 5.89018,-5.89022 l 2.94512,0 0,-5.89018 a 14.725499,14.725499 0 0 1 14.7255,-14.72548 14.725499,14.725499 0 0 1 14.72549,14.72548 l 0,5.89018 2.94512,0 m -17.67061,-14.72548 a 8.8352997,8.8352997 0 0 0 -8.83532,8.8353 l 0,5.89018 17.67063,0 0,-5.89018 a 8.8352997,8.8352997 0 0 0 -8.83531,-8.8353 z"
       inkscape:connector-curvature="0"
       style="fill:#14a60e;fill-opacity:1"
       inkscape:label="#path4423" />
    <path
       id="binary_sensor.trig_patio_door_sensor"
       d="m 819.12319,895.63299 -3.21534,0 0,-9.64602 3.21534,0 m 0,16.0767 -3.21534,0 0,-3.21534 3.21534,0 m -1.60767,-20.8997 a 16.076699,16.076699 0 0 0 -16.0767,16.07669 16.076699,16.076699 0 0 0 16.0767,16.0767 16.076699,16.076699 0 0 0 16.07669,-16.0767 16.076699,16.076699 0 0 0 -16.07669,-16.07669 z"
       inkscape:connector-curvature="0"
       style="fill:#ec2121;fill-opacity:1"
       inkscape:label="#path4434" />
    <path
       id="binary_sensor.trig_guest_window_sensor"
       d="m 435.81543,895.63299 -3.21534,0 0,-9.64602 3.21534,0 m 0,16.0767 -3.21534,0 0,-3.21534 3.21534,0 m -1.60767,-20.8997 a 16.076699,16.076699 0 0 0 -16.0767,16.07669 16.076699,16.076699 0 0 0 16.0767,16.0767 16.076699,16.076699 0 0 0 16.07669,-16.0767 16.076699,16.076699 0 0 0 -16.07669,-16.07669 z"
       inkscape:connector-curvature="0"
       style="fill:#ec2121;fill-opacity:1"
       inkscape:label="#path4434-8" />
    <path
       id="binary_sensor.trig_master_window_sensor"
       d="m 201.85233,895.63299 -3.21534,0 0,-9.64602 3.21534,0 m 0,16.0767 -3.21534,0 0,-3.21534 3.21534,0 m -1.60767,-20.8997 a 16.076699,16.076699 0 0 0 -16.0767,16.07669 16.076699,16.076699 0 0 0 16.0767,16.0767 16.076699,16.076699 0 0 0 16.07669,-16.0767 16.076699,16.076699 0 0 0 -16.07669,-16.07669 z"
       inkscape:connector-curvature="0"
       style="fill:#ec2121;fill-opacity:1"
       inkscape:label="#path4434-8-3" />
    <path
       id="binary_sensor.trig_front_door_sensor"
       d="m 641.31834,895.63299 -3.21534,0 0,-9.64602 3.21534,0 m 0,16.0767 -3.21534,0 0,-3.21534 3.21534,0 m -1.60767,-20.8997 a 16.076699,16.076699 0 0 0 -16.0767,16.07669 16.076699,16.076699 0 0 0 16.0767,16.0767 16.076699,16.076699 0 0 0 16.07669,-16.0767 16.076699,16.076699 0 0 0 -16.07669,-16.07669 z"
       inkscape:connector-curvature="0"
       style="fill:#ec2121;fill-opacity:1"
       inkscape:label="#path4434-8-0" />
    <path
       id="binary_sensor.trig_security_sensor"
       d="m 392.10859,969.23831 5.6272,0 0,8.44081 8.44081,0 0,-14.06801 5.62721,0 -16.88162,-14.06803 -16.88162,14.06803 5.6272,0 0,14.06801 8.44082,0 0,-8.44081 m 2.8136,-33.76324 25.32243,11.25442 0,16.88162 c 0,15.61549 -10.80424,30.2181 -25.32243,33.76324 -14.51819,-3.54514 -25.32243,-18.14775 -25.32243,-33.76324 l 0,-16.88162 25.32243,-11.25442 z"
       inkscape:connector-curvature="0"
       style="fill:#44739e;fill-opacity:1;stroke:none;stroke-opacity:1"
       inkscape:label="#path4523" />
    <path
       id="binary_sensor.trig_fire_alarm"
       d="m 471.01353,988.68843 c -5.17018,0 -9.32375,-4.09548 -9.32375,-9.12043 0,-4.70544 2.99174,-8.01668 8.13287,-9.06233 5.14113,-1.04566 10.45654,-3.51456 13.41922,-7.49386 1.1328,3.74693 1.68467,7.69718 1.68467,11.73456 0,7.66813 -6.21583,13.94206 -13.91301,13.94206 m 5.19923,-53.24122 c 0,0 2.1494,7.69718 2.1494,13.94205 0,5.98347 -3.92121,10.83414 -9.90467,10.83414 -6.01251,0 -10.54368,-4.85067 -10.54368,-10.83414 l 0.0871,-1.0747 c -5.86728,6.97103 -9.38184,16.00432 -9.38184,25.85089 a 23.236756,23.236756 0 0 0 23.23675,23.23676 23.236756,23.236756 0 0 0 23.23676,-23.23676 c 0,-15.68481 -7.5229,-29.62686 -18.87986,-38.71824 z"
       inkscape:connector-curvature="0"
       style="fill:#44739e;fill-opacity:1;stroke:none;stroke-opacity:1"
       inkscape:label="#path4534" />
    <path
       id="switch.all_lights"
       d="m 164.12117,949.93894 a 16.485767,16.485767 0 0 1 16.48577,16.48577 c 0,6.09973 -3.32464,11.43014 -8.24289,14.28766 l 0,4.94573 a 2.7476279,2.7476279 0 0 1 -2.74763,2.74764 l -10.9905,0 a 2.7476279,2.7476279 0 0 1 -2.74763,-2.74764 l 0,-4.94573 c -4.91826,-2.85752 -8.24289,-8.18793 -8.24289,-14.28766 a 16.485767,16.485767 0 0 1 16.48577,-16.48577 m 5.49525,41.21443 0,2.74762 a 2.7476279,2.7476279 0 0 1 -2.74762,2.74763 l -5.49526,0 a 2.7476279,2.7476279 0 0 1 -2.74762,-2.74763 l 0,-2.74762 10.9905,0 m 16.48578,-27.47629 8.24288,0 0,5.49526 -8.24288,0 0,-5.49526 m -52.20494,0 8.24288,0 0,5.49526 -8.24288,0 0,-5.49526 m 32.97154,-27.47628 0,8.24288 -5.49526,0 0,-8.24288 5.49526,0 m -22.20085,6.86908 5.85245,5.87991 -3.90163,3.87417 -5.85244,-5.82497 3.90162,-3.92911 m 33.05397,5.85244 5.82497,-5.85244 3.92911,3.92911 -5.85244,5.82497 -3.90164,-3.90164 z"
       inkscape:connector-curvature="0"
       style="fill:#44739e;fill-opacity:1"
       inkscape:label="#path4239-78-5" />
    <path
       id="input_boolean.security_notifications"
       d="m 308.77758,997.12781 a 3.0703125,3.0703125 0 0 1 -3.07031,-3.0703 l 0,-9.2109 -12.28125,0 a 6.140625,6.140625 0 0 1 -6.14062,-6.1406 l 0,-36.8438 c 0,-3.408 2.76329,-6.1406 6.14062,-6.1406 l 49.125,0 a 6.140625,6.140625 0 0 1 6.14063,6.1406 l 0,36.8438 a 6.140625,6.140625 0 0 1 -6.14063,6.1406 l -18.72891,0 -11.36016,11.3909 c -0.61405,0.5833 -1.38163,0.8903 -2.14921,0.8903 l 0,0 -1.53516,0 m 12.28125,-36.8437 0,-12.2813 -6.14063,0 0,12.2813 6.14063,0 m 0,12.2812 0,-6.1406 -6.14063,0 0,6.1406 6.14063,0 z"
       inkscape:connector-curvature="0"
       style="fill:#44739e;fill-opacity:1"
       inkscape:label="#path4571" />
    <path
       id="switch.siren_switch"
       d="m 96.463628,987.01774 0,10.32741 -30.92046,0 0,-10.32741 c 9.55443,5.53478 21.36605,5.53478 30.92046,0 m 21.644322,-45.32938 a 6.1840898,6.1840898 0 0 0 -6.18409,-6.18409 c -0.95852,0 -1.88615,0.21645 -2.721,0.64933 -0.92761,0.4638 -1.73154,1.14406 -2.34996,1.9789 -1.97891,2.78285 -1.29865,6.6479 1.51511,8.6268 1.02037,0.71117 2.28812,1.11315 3.55585,1.11315 0.24736,0 0.49472,0 0.74209,0 5.34924,13.69775 1.29867,29.25073 -10.01824,38.65057 -0.98945,0.773 -2.00982,1.546 -3.092032,2.22627 l 0,5.50388 3.092032,0 0,-3.89602 c 9.70903,-6.92617 15.46024,-18.18124 15.46024,-30.11653 0,-4.63806 -0.86577,-9.27615 -2.5664,-13.54315 1.60788,-1.17499 2.5664,-3.03021 2.5664,-5.00911 m -12.36817,18.55226 a 24.736359,24.736359 0 0 1 -24.736372,24.73637 24.736359,24.736359 0 0 1 -24.73636,-24.73637 24.736359,24.736359 0 0 1 24.73636,-24.73635 24.736359,24.736359 0 0 1 24.736372,24.73635 z"
       inkscape:connector-curvature="0"
       style="fill:#44739e;fill-opacity:1"
       inkscape:label="#path4512" />
    <g
       id="automation.siren_alarm"
       inkscape:label="#g4630">
      <path
         style="fill:#44739e;fill-opacity:1"
         d="M 619.53906 627.23633 A 24.736359 24.736359 0 0 0 594.80273 651.97266 A 24.736359 24.736359 0 0 0 619.53906 676.70898 A 24.736359 24.736359 0 0 0 644.27539 651.97266 A 24.736359 24.736359 0 0 0 619.53906 627.23633 z M 650.45898 627.23633 C 649.50046 627.23633 648.57313 627.45384 647.73828 627.88672 C 646.81067 628.35052 646.00709 629.03039 645.38867 629.86523 C 643.40976 632.64808 644.09054 636.51329 646.9043 638.49219 C 647.92467 639.20336 649.19125 639.60547 650.45898 639.60547 L 651.20117 639.60547 C 656.55041 653.30322 652.5005 668.85602 641.18359 678.25586 C 640.19414 679.02886 639.17401 679.80215 638.0918 680.48242 L 638.0918 685.98633 L 641.18359 685.98633 L 641.18359 682.08984 C 650.89262 675.16367 656.64453 663.90795 656.64453 651.97266 C 656.64453 647.3346 655.77876 642.69669 654.07812 638.42969 C 655.68601 637.2547 656.64453 635.39882 656.64453 633.41992 A 6.1840898 6.1840898 0 0 0 650.45898 627.23633 z M 617.58203 635.61523 L 622.73828 635.61523 L 633.32422 664.69727 L 629.20312 664.69727 L 626.35156 656.5918 L 613.77344 656.5918 L 610.92188 664.69727 L 606.99609 664.69727 L 617.58203 635.61523 z M 620.0625 638.99414 L 614.94531 653.27148 L 625.16016 653.27148 L 620.0625 638.99414 z M 604.07812 678.75 L 604.07812 689.07812 L 635 689.07812 L 635 678.75 C 625.44559 684.28478 613.63256 684.28478 604.07812 678.75 z "
         transform="translate(0,308.26772)"
         id="automation_siren_alarm" />
    </g>
    <g
       id="automation.lights_alarm"
       transform="translate(70.15564,0)"
       inkscape:label="#g4622">
      <path
         style="fill:#44739e;fill-opacity:1"
         d="M 545.85547 627.34375 L 545.85547 636.14844 L 551.72461 636.14844 L 551.72461 627.34375 L 545.85547 627.34375 z M 529.07031 634.29883 L 524.93164 638.4375 L 531.18164 644.6582 L 535.29102 640.55078 L 529.07031 634.29883 z M 568.50977 634.29883 L 562.28906 640.55078 L 566.39648 644.6582 L 572.64648 638.4375 L 568.50977 634.29883 z M 548.78906 639.08203 A 17.607144 17.607144 0 0 0 531.18164 656.68945 L 531.18164 680.16602 L 566.39648 680.16602 L 566.39648 656.68945 A 17.607144 17.607144 0 0 0 548.78906 639.08203 z M 546.21094 643.61523 L 551.36719 643.61523 L 561.95312 672.69727 L 557.83203 672.69727 L 554.98047 664.5918 L 542.40234 664.5918 L 539.55078 672.69727 L 535.625 672.69727 L 546.21094 643.61523 z M 548.69141 646.99414 L 543.57422 661.27148 L 553.78906 661.27148 L 548.69141 646.99414 z M 517.97656 655.22266 L 517.97656 661.0918 L 526.78125 661.0918 L 526.78125 655.22266 L 517.97656 655.22266 z M 570.79883 655.22266 L 570.79883 661.0918 L 579.60156 661.0918 L 579.60156 655.22266 L 570.79883 655.22266 z M 531.18164 683.09961 A 5.8690476 5.8690476 0 0 0 525.3125 688.96875 L 572.26562 688.96875 A 5.8690476 5.8690476 0 0 0 566.39648 683.09961 L 531.18164 683.09961 z "
         transform="translate(-70.15564,308.26772)"
         id="input_boolean.lights_alarm" />
    </g>
  </g>
</svg>
